<svg width="566" height="568" viewBox="0 0 566 568" fill="none" xmlns="http://www.w3.org/2000/svg">
<g filter="url(#filter0_d_2_77)">
<path d="M412 280C412 354.558 352.006 415 278 415C203.994 415 144 354.558 144 280C144 205.442 203.994 145 278 145C352.006 145 412 205.442 412 280Z" fill="url(#paint0_radial_2_77)" shape-rendering="crispEdges"/>
<path d="M412 280C412 354.558 352.006 415 278 415C203.994 415 144 354.558 144 280C144 205.442 203.994 145 278 145C352.006 145 412 205.442 412 280Z" fill="url(#paint1_radial_2_77)" shape-rendering="crispEdges"/>
<path d="M278 420C354.803 420 417 357.285 417 280C417 202.715 354.803 140 278 140C201.197 140 139 202.715 139 280C139 357.285 201.197 420 278 420Z" stroke="white" stroke-width="10" shape-rendering="crispEdges"/>
</g>
<defs>
<filter id="filter0_d_2_77" x="0" y="0" width="566" height="568" filterUnits="userSpaceOnUse" color-interpolation-filters="sRGB">
<feFlood flood-opacity="0" result="BackgroundImageFix"/>
<feColorMatrix in="SourceAlpha" type="matrix" values="0 0 0 0 0 0 0 0 0 0 0 0 0 0 0 0 0 0 127 0" result="hardAlpha"/>
<feOffset dx="5" dy="4"/>
<feGaussianBlur stdDeviation="72"/>
<feComposite in2="hardAlpha" operator="out"/>
<feColorMatrix type="matrix" values="0 0 0 0 0.0211112 0 0 0 0 0.791667 0 0 0 0 0.680044 0 0 0 0.33 0"/>
<feBlend mode="normal" in2="BackgroundImageFix" result="effect1_dropShadow_2_77"/>
<feBlend mode="normal" in="SourceGraphic" in2="effect1_dropShadow_2_77" result="shape"/>
</filter>
<radialGradient id="paint0_radial_2_77" cx="0" cy="0" r="1" gradientUnits="userSpaceOnUse" gradientTransform="translate(273.239 286.818) rotate(90.5926) scale(1183.7 1174.93)">
<stop stop-color="#0C1615"/>
<stop offset="0.588682" stop-color="#03DAB2" stop-opacity="0.11"/>
</radialGradient>
<radialGradient id="paint1_radial_2_77" cx="0" cy="0" r="1" gradientUnits="userSpaceOnUse" gradientTransform="translate(273.239 286.818) rotate(90.5926) scale(1183.7 1174.93)">
<stop stop-color="#EEEEEE"/>
<stop offset="0.588682" stop-color="#1ABEFF" stop-opacity="0.5"/>
</radialGradient>
</defs>
</svg>
