<svg width="351" height="101" viewBox="0 0 351 101" fill="none" xmlns="http://www.w3.org/2000/svg">
<g filter="url(#filter0_b_2_70)">
<path d="M0 20C0 8.9543 8.95431 0 20 0H330.527C341.573 0 350.527 8.9543 350.527 20V81C350.527 92.0457 341.573 101 330.527 101H20C8.9543 101 0 92.0457 0 81V20Z" fill="url(#paint0_linear_2_70)" fill-opacity="0.3"/>
<path d="M1 20C1 9.50659 9.50659 1 20 1H330.527C341.021 1 349.527 9.50659 349.527 20V81C349.527 91.4934 341.021 100 330.527 100H20C9.50658 100 1 91.4934 1 81V20Z" stroke="url(#paint1_linear_2_70)" stroke-width="2"/>
</g>
<defs>
<filter id="filter0_b_2_70" x="-4" y="-4" width="358.527" height="109" filterUnits="userSpaceOnUse" color-interpolation-filters="sRGB">
<feFlood flood-opacity="0" result="BackgroundImageFix"/>
<feGaussianBlur in="BackgroundImageFix" stdDeviation="2"/>
<feComposite in2="SourceAlpha" operator="in" result="effect1_backgroundBlur_2_70"/>
<feBlend mode="normal" in="SourceGraphic" in2="effect1_backgroundBlur_2_70" result="shape"/>
</filter>
<linearGradient id="paint0_linear_2_70" x1="10.2711" y1="-7.06999" x2="38.451" y2="124.66" gradientUnits="userSpaceOnUse">
<stop stop-color="#3E5544"/>
<stop offset="1" stop-color="#001A16"/>
</linearGradient>
<linearGradient id="paint1_linear_2_70" x1="322.504" y1="82.0582" x2="279.897" y2="-76.5763" gradientUnits="userSpaceOnUse">
<stop stop-color="#16262D"/>
<stop offset="1" stop-color="#26E2B3"/>
</linearGradient>
</defs>
</svg>
