<svg width="7436" height="1408" viewBox="0 0 7436 1408" fill="none" xmlns="http://www.w3.org/2000/svg">
<g filter="url(#filter0_b_2_47)">
<path d="M7435 19.9784C7435 20.595 7434.5 21.0948 7433.88 21.0948H7413.79C7413.17 21.0948 7412.67 20.595 7412.67 19.9784V19.4202C7412.67 19.1119 7412.92 18.8621 7413.23 18.8621C7413.54 18.8621 7413.79 18.6122 7413.79 18.3039V11.0821C7413.79 5.51359 7418.29 1.00008 7423.84 1.00008C7429.38 1.00008 7433.88 5.51359 7433.88 11.0821V18.3039C7433.88 18.6122 7434.13 18.8621 7434.44 18.8621C7434.75 18.8621 7435 19.1119 7435 19.4202V19.9784ZM7421.86 24.1847C7421.01 23.3287 7422.03 22.2112 7423.24 22.2112H7424.44C7425.65 22.2112 7426.67 23.3287 7425.81 24.1847C7425.29 24.7081 7424.58 25.0021 7423.84 25.0021C7423.1 25.0021 7422.39 24.7081 7421.86 24.1847Z" fill="#13999A"/>
<path d="M26.8153 1394.02C26.8153 1401.15 21.0361 1406.93 13.9074 1406.93C6.77876 1406.93 1.00008 1401.15 1.00008 1394.02C1.00008 1386.9 6.77876 1381.12 13.9074 1381.12C21.0361 1381.12 26.8153 1386.9 26.8153 1394.02Z" fill="#13999A"/>
<path d="M7433.88 21.5948C7434.78 21.5948 7435.5 20.8712 7435.5 19.9784V19.4202C7435.5 18.8357 7435.03 18.362 7434.44 18.362C7434.41 18.362 7434.38 18.3359 7434.38 18.3039V11.0821C7434.38 5.23899 7429.66 0.500042 7423.84 0.500042C7418.01 0.500042 7413.29 5.23902 7413.29 11.0821V18.3039C7413.29 18.3359 7413.26 18.362 7413.23 18.362C7412.65 18.362 7412.17 18.8357 7412.17 19.4202V19.9784C7412.17 20.8712 7412.9 21.5948 7413.79 21.5948H7433.88ZM7423.24 21.7111C7422.49 21.7111 7421.78 22.0516 7421.38 22.5707C7421.18 22.835 7421.04 23.1647 7421.05 23.5281C7421.06 23.8987 7421.22 24.2467 7421.51 24.5383C7422.13 25.1554 7422.96 25.5022 7423.84 25.5022C7424.71 25.5022 7425.55 25.1554 7426.16 24.5383C7426.45 24.2467 7426.62 23.8987 7426.63 23.5281C7426.64 23.1647 7426.5 22.835 7426.29 22.5707C7425.89 22.0516 7425.18 21.7111 7424.44 21.7111H7423.24ZM13.9074 1407.43C21.3122 1407.43 27.3153 1401.43 27.3153 1394.02C27.3153 1386.62 21.3122 1380.62 13.9074 1380.62C6.50258 1380.62 0.500042 1386.62 0.500042 1394.02C0.500042 1401.43 6.50258 1407.43 13.9074 1407.43Z" stroke="white"/>
</g>
<defs>
<filter id="filter0_b_2_47" x="-4.00034" y="-4.00034" width="7444" height="1415.93" filterUnits="userSpaceOnUse" color-interpolation-filters="sRGB">
<feFlood flood-opacity="0" result="BackgroundImageFix"/>
<feGaussianBlur in="BackgroundImageFix" stdDeviation="2"/>
<feComposite in2="SourceAlpha" operator="in" result="effect1_backgroundBlur_2_47"/>
<feBlend mode="normal" in="SourceGraphic" in2="effect1_backgroundBlur_2_47" result="shape"/>
</filter>
</defs>
</svg>
